<svg width="40" height="44" viewBox="0 0 40 44" fill="none" xmlns="http://www.w3.org/2000/svg">
<g clip-path="url(#clip0)">
<path d="M28.5897 41.2148H15.5942C14.9079 41.2148 14.3517 40.5747 14.3517 39.785V1.43175C14.3517 0.642102 14.9079 0.00201416 15.5942 0.00201416H28.5897C29.2759 0.00201416 29.8322 0.642102 29.8322 1.43175V39.7849C29.8322 40.5747 29.2759 41.2148 28.5897 41.2148Z" fill="#50B8FF"/>
<path d="M29.8323 1.47731V39.7355C29.8323 40.5516 29.2575 41.2128 28.5484 41.2128H27.1026C27.8118 41.2128 28.3864 40.5515 28.3864 39.7355V1.47731C28.3864 0.661338 27.8117 0 27.1025 0H28.5483C29.2575 0 29.8323 0.661338 29.8323 1.47731V1.47731Z" fill="#2195F2"/>
<path d="M17.577 8.37128H26.6069V19.8349H17.577V8.37128Z" fill="#18636D"/>
<path d="M25.1612 8.37128H26.607V19.8349H25.1612V8.37128Z" fill="#353335"/>
<path d="M14.3517 19.8349H29.8323V22.6116H14.3517V19.8349Z" fill="#CBC4CC"/>
<path d="M28.3865 19.8349H29.8324V22.6116H28.3865V19.8349Z" fill="#B5ADB6"/>
<path d="M26.6069 25.485H17.577C17.2872 25.485 17.0523 25.2147 17.0523 24.8813C17.0523 24.5479 17.2872 24.2776 17.577 24.2776H26.6069C26.8967 24.2776 27.1316 24.5479 27.1316 24.8813C27.1316 25.2147 26.8967 25.485 26.6069 25.485Z" fill="#18636D"/>
<path d="M20.0673 11.746C19.7776 11.746 19.5426 11.4757 19.5426 11.1423V9.52024C19.5426 9.18683 19.7776 8.91653 20.0673 8.91653C20.3571 8.91653 20.592 9.18683 20.592 9.52024V11.1423C20.592 11.4757 20.3571 11.746 20.0673 11.746Z" fill="#FD4755"/>
<path d="M24.1169 11.746C23.8271 11.746 23.5922 11.4757 23.5922 11.1423V9.52024C23.5922 9.18683 23.8271 8.91653 24.1169 8.91653C24.4066 8.91653 24.6415 9.18683 24.6415 9.52024V11.1423C24.6415 11.4757 24.4066 11.746 24.1169 11.746Z" fill="#60B7FF"/>
<path d="M14.3517 6.02658L17.0371 8.93539C17.3839 9.31106 17.8422 9.52026 18.3185 9.52026H25.8655C26.3418 9.52026 26.8001 9.31106 27.1469 8.93539L29.8323 6.02658H14.3517Z" fill="#F3F0F3"/>
<path d="M29.832 6.02658L27.1464 8.93547C26.8001 9.31146 26.3418 9.52026 25.8654 9.52026H23.9613C24.4377 9.52026 24.896 9.31146 25.243 8.93547L27.9286 6.02658H29.832Z" fill="#E2DEE2"/>
<path d="M20.1254 4.54252C20.4907 4.54252 20.7868 4.20181 20.7868 3.78153C20.7868 3.36125 20.4907 3.02054 20.1254 3.02054C19.7602 3.02054 19.4641 3.36125 19.4641 3.78153C19.4641 4.20181 19.7602 4.54252 20.1254 4.54252Z" fill="#FD4755"/>
<path d="M24.1001 4.54252C24.4653 4.54252 24.7614 4.20181 24.7614 3.78153C24.7614 3.36125 24.4653 3.02054 24.1001 3.02054C23.7348 3.02054 23.4388 3.36125 23.4388 3.78153C23.4388 4.20181 23.7348 4.54252 24.1001 4.54252Z" fill="white"/>
</g>
<path d="M16 27.25C19.7279 27.25 22.75 30.2721 22.75 34C22.75 37.7279 19.7279 40.75 16 40.75C12.2721 40.75 9.25 37.7279 9.25 34C9.25 30.2721 12.2721 27.25 16 27.25Z" fill="#F78545" stroke="white" stroke-width="0.5"/>
<path d="M11.5 36L13.4724 33.0277L15.8057 36.5277L18.9168 31.0833M18.9168 31.0833L17.7501 31.8611L18.9168 32.2499V31.8611M18.9168 31.0833V31.8611M18.9168 31.8611H18.139" stroke="white" stroke-width="0.5"/>
<g clip-path="url(#clip1)">
<path d="M12.2554 25.6436C12.3824 25.6436 12.4825 25.7681 12.4725 25.9138L12.3545 27.6507L11.9931 32.9679L11.4487 40.9818C11.4398 41.1122 11.3452 41.2129 11.2316 41.2129H4.29926C4.18555 41.2129 4.09099 41.1122 4.08214 40.9818L3.2458 28.672L3.05854 25.9138C3.04863 25.7681 3.14868 25.6436 3.27566 25.6436H12.2554Z" fill="#CAEDFF"/>
<path d="M12.2554 25.6437C12.3823 25.6437 12.4824 25.7682 12.4725 25.9139L12.3546 27.6506L11.9932 32.9679L11.4487 40.9817C11.4399 41.1121 11.3453 41.2127 11.2316 41.2127H10.9308L11.4907 32.9679L11.8521 27.6506L11.9886 25.6437H12.2554Z" fill="#76C2E0"/>
<path d="M11.1562 28.8202C11.3001 28.7799 11.4365 28.9125 11.4255 29.0824L11.274 31.4137L11.0966 34.1459L10.7241 39.8836C10.7156 40.0144 10.6209 40.1155 10.5069 40.1155H5.03777C4.92379 40.1155 4.82907 40.0144 4.82056 39.8835L4.16612 29.8012C4.15856 29.6846 4.22183 29.577 4.31903 29.543C5.04194 29.2903 6.15563 29.0684 7.18216 29.5515C8.47759 30.161 9.5768 29.3247 10.9289 28.8889C11.0038 28.8647 11.0795 28.8417 11.1562 28.8202Z" fill="#50B8FF"/>
<path d="M11.1554 28.8205C11.2997 28.7801 11.4366 28.9119 11.4255 29.0823L11.2742 31.4135L11.0966 34.1457L10.7242 39.8836C10.7157 40.0145 10.621 40.1156 10.507 40.1156H10.2454L10.6329 34.1457L10.8105 31.4135L10.9754 28.8741C11.0348 28.8554 11.0948 28.8375 11.1554 28.8205Z" fill="#2195F2"/>
<path d="M10.1951 30.9752C10.0823 30.9752 9.99089 30.87 9.99089 30.7403V30.6843C9.99089 30.5545 10.0823 30.4493 10.1951 30.4493C10.3078 30.4493 10.3992 30.5545 10.3992 30.6843V30.7403C10.3993 30.87 10.3079 30.9752 10.1951 30.9752Z" fill="#CAEDFF"/>
<path d="M9.24948 31.9989C9.13669 31.9989 9.0453 31.8937 9.0453 31.764V31.708C9.0453 31.5782 9.13671 31.473 9.24948 31.473C9.36224 31.473 9.45365 31.5782 9.45365 31.708V31.764C9.45365 31.8937 9.36224 31.9989 9.24948 31.9989Z" fill="#CAEDFF"/>
<path d="M10.1951 34.5184C10.0823 34.5184 9.99089 34.4132 9.99089 34.2835V34.2275C9.99089 34.0977 10.0823 33.9925 10.1951 33.9925C10.3078 33.9925 10.3992 34.0977 10.3992 34.2275V34.2835C10.3993 34.4132 10.3079 34.5184 10.1951 34.5184Z" fill="#CAEDFF"/>
<path d="M6.71435 33.6221C6.60159 33.6221 6.51018 33.5169 6.51018 33.3872V33.3312C6.51018 33.2014 6.60159 33.0962 6.71435 33.0962C6.82712 33.0962 6.91853 33.2014 6.91853 33.3312V33.3872C6.91853 33.5169 6.82712 33.6221 6.71435 33.6221Z" fill="#CAEDFF"/>
<path d="M5.50363 31.5892C5.39086 31.5892 5.29945 31.484 5.29945 31.3542V31.2982C5.29945 31.1685 5.39086 31.0633 5.50363 31.0633C5.61639 31.0633 5.7078 31.1685 5.7078 31.2982V31.3542C5.7078 31.484 5.61639 31.5892 5.50363 31.5892Z" fill="#CAEDFF"/>
<path d="M7.07188 30.9472C6.95912 30.9472 6.86771 30.8421 6.86771 30.7123V30.6563C6.86771 30.5265 6.95912 30.4214 7.07188 30.4214C7.18465 30.4214 7.27606 30.5265 7.27606 30.6563V30.7123C7.27608 30.8421 7.18465 30.9472 7.07188 30.9472Z" fill="#CAEDFF"/>
<path d="M7.90137 37.8907H6.61976C6.49947 37.8907 6.40198 37.7785 6.40198 37.6402V36.1655C6.40198 36.027 6.49949 35.9149 6.61976 35.9149H7.90137C8.02166 35.9149 8.11915 36.0271 8.11915 36.1655V37.6402C8.11915 37.7785 8.02164 37.8907 7.90137 37.8907Z" fill="#CAEDFF"/>
<path d="M8.8014 34.7496L7.59011 34.2678C7.47642 34.2226 7.41612 34.0799 7.45541 33.9491L7.8741 32.5553C7.9134 32.4245 8.03742 32.3551 8.15111 32.4003L9.36239 32.8821C9.47608 32.9273 9.53639 33.07 9.49709 33.2008L9.07841 34.5946C9.03911 34.7254 8.91509 34.7948 8.8014 34.7496Z" fill="#CAEDFF"/>
</g>
<defs>
<clipPath id="clip0">
<rect width="35.8164" height="41.2129" fill="white" transform="translate(4.18365)"/>
</clipPath>
<clipPath id="clip1">
<rect width="13.5307" height="15.5693" fill="white" transform="translate(1.00018 25.6436)"/>
</clipPath>
</defs>
</svg>
