<svg width="34" height="43" viewBox="0 0 34 43" fill="none" xmlns="http://www.w3.org/2000/svg">
<g clip-path="url(#clip0)">
<path d="M23.054 38H9.94621C8.09292 38 6.49004 36.5132 6.09533 34.4281L1.28216 8.99815C1.06695 7.86119 1.81899 6.78613 2.82955 6.78613H30.1708C31.1813 6.78613 31.9334 7.86119 31.7181 8.99815L26.9049 34.428C26.5103 36.5132 24.9073 38 23.054 38V38Z" fill="#CAEDFF"/>
<path d="M16.5 13.7411C9.54191 13.7411 9.93675 16.1931 2.56055 15.753L5.14144 29.3886C5.50747 31.3226 6.99421 32.7016 8.71311 32.7016H24.2869C26.0058 32.7016 27.4926 31.3226 27.8586 29.3886L30.4395 15.753C23.0633 16.1931 23.4581 13.7411 16.5 13.7411Z" fill="#50B8FF"/>
<path d="M8.22893 10.7627C8.08655 13.4757 8.91219 16.1522 10.4941 18.1062C12.0422 20.0183 14.146 21.0853 16.418 21.1106C16.4454 21.1109 16.4722 21.1111 16.4997 21.1111C21.0716 21.1111 24.7911 16.828 24.7911 11.5634C24.7911 9.65394 24.4525 8.11302 23.9281 6.78613H9.07262C8.62364 7.92227 8.31014 9.21531 8.22893 10.7627V10.7627Z" fill="#50B8FF"/>
<path d="M16.5002 13.7411C12.4665 13.7411 10.9038 14.5651 8.86578 15.1719C9.25083 16.2506 9.79958 17.2481 10.4943 18.1061C12.0424 20.0182 14.1462 21.0852 16.4181 21.1106C16.4455 21.1109 16.4723 21.111 16.4998 21.111C19.9597 21.111 22.9309 18.6578 24.1718 15.1829C22.1155 14.575 20.5583 13.7411 16.5002 13.7411Z" fill="#EEF9F9"/>
<path d="M10.2173 10.901C10.4551 6.3696 13.1351 4.57596 15.3117 0.73885C15.8702 -0.24581 17.129 -0.246478 17.6875 0.738257C19.967 4.75742 22.7992 6.53459 22.7992 11.5634C22.7992 15.5936 19.9451 18.8562 16.4373 18.8171C12.7548 18.7759 9.99518 15.1339 10.2173 10.901V10.901Z" fill="#CAEDFF"/>
<path d="M16.4373 18.817C18.974 18.8453 21.1685 17.1467 22.1894 14.6801C13.3799 16.4521 11.6291 8.35341 12.6392 4.6795C11.378 6.45608 10.3597 8.18783 10.2174 10.901C9.99519 15.134 12.7548 18.776 16.4373 18.817Z" fill="#50B8FF"/>
<path d="M11.2177 28.9102C12.2942 28.9102 13.1669 28.11 13.1669 27.1229C13.1669 26.1358 12.2942 25.3355 11.2177 25.3355C10.1413 25.3355 9.26862 26.1358 9.26862 27.1229C9.26862 28.11 10.1413 28.9102 11.2177 28.9102Z" fill="white"/>
<path d="M21.7826 28.9102C22.8591 28.9102 23.7317 28.11 23.7317 27.1229C23.7317 26.1358 22.8591 25.3355 21.7826 25.3355C20.7061 25.3355 19.8335 26.1358 19.8335 27.1229C19.8335 28.11 20.7061 28.9102 21.7826 28.9102Z" fill="white"/>
<path d="M16.5003 25.2238C15.7271 25.2238 15.0384 24.6255 14.6053 25.3634C14.166 26.1119 15.15 27.2725 16.5003 27.2725C17.8507 27.2725 18.8346 26.1119 18.3953 25.3634C17.9622 24.6256 17.2736 25.2238 16.5003 25.2238Z" fill="#4E5660"/>
<path d="M12.3536 25.8357C11.8841 25.8357 11.4378 25.6016 11.1289 25.1935C10.9536 24.9617 10.9745 24.6102 11.1758 24.4081C11.3771 24.2062 11.6824 24.2304 11.8578 24.4621C11.9831 24.6275 12.1638 24.7225 12.3536 24.7225C12.5434 24.7225 12.7242 24.6275 12.8495 24.4621C13.0249 24.2304 13.3302 24.2063 13.5315 24.4081C13.7328 24.6102 13.7537 24.9617 13.5784 25.1935C13.2694 25.6016 12.8231 25.8357 12.3536 25.8357Z" fill="#4E5660"/>
<path d="M20.6466 25.8354C20.1771 25.8354 19.7308 25.6013 19.4219 25.1932C19.2466 24.9614 19.2675 24.6099 19.4688 24.4078C19.6701 24.2059 19.9754 24.2301 20.1508 24.4618C20.2761 24.6272 20.4568 24.7221 20.6466 24.7221C20.8364 24.7221 21.0172 24.6273 21.1424 24.4618C21.3178 24.23 21.6231 24.2059 21.8244 24.4078C22.0257 24.6098 22.0467 24.9614 21.8713 25.1932C21.5624 25.6013 21.1161 25.8354 20.6466 25.8354Z" fill="#4E5660"/>
</g>
<circle cx="25.0005" cy="34" r="8.75" fill="#F68545" stroke="white" stroke-width="0.5"/>
<g clip-path="url(#clip1)">
<path d="M27.6034 31.6035L27.5047 31.6055C27.2162 31.6172 26.941 31.6797 26.6877 31.7846C26.6877 31.7846 26.1025 31.8763 25.0864 33.1502L25.0181 33.2324C24.1947 32.1467 23.4475 31.8349 23.3287 31.7905C23.3136 31.7848 23.2987 31.779 23.2839 31.7732C23.0165 31.6664 22.7256 31.6065 22.4209 31.6035C21.1002 31.5904 20.0097 32.6615 20 33.9822C19.9904 35.3139 21.067 36.3966 22.3966 36.3966L22.4953 36.3946C22.7837 36.383 23.0589 36.3204 23.3122 36.2155C23.3122 36.2155 23.9087 36.122 24.9427 34.8132L24.9385 34.8188L24.962 34.8476C25.9243 35.9906 26.6878 36.2155 26.6878 36.2155C26.9698 36.3323 27.2792 36.3966 27.6034 36.3966C28.9271 36.3966 30 35.3236 30 34.0001C30 32.6766 28.9271 31.6035 27.6034 31.6035V31.6035ZM23.6105 34.8472C23.2754 35.1986 22.8941 35.4697 22.3865 35.4697C21.5748 35.4697 20.9169 34.8118 20.9169 34.0001C20.9169 33.1886 21.5746 32.5306 22.3859 32.5304C22.8394 32.5302 23.1995 32.7743 23.5299 33.069C24.0335 33.5178 24.4162 33.9587 24.4162 33.9587C24.4162 33.9587 23.8877 34.5561 23.6105 34.8472V34.8472ZM27.614 35.4697C27.1606 35.4699 26.8005 35.2259 26.47 34.9312C25.9665 34.4823 25.5838 34.0415 25.5838 34.0415C25.5838 34.0415 26.1122 33.4441 26.3894 33.153C26.7245 32.8016 27.1059 32.5304 27.6134 32.5304C28.4252 32.5304 29.0831 33.1883 29.0831 34.0001C29.0831 34.8116 28.4254 35.4695 27.614 35.4697V35.4697Z" fill="white"/>
<path d="M25.5837 34.0415C25.5837 34.0415 25.6946 34.1693 25.876 34.3575L25.2343 35.1533C25.1457 35.0596 25.0548 34.9579 24.9619 34.8475L24.9384 34.8188L24.9426 34.8132L25.5837 34.0415Z" fill="#CECDCD"/>
<path d="M24.4163 33.9587C24.4163 33.9587 24.3091 33.8352 24.1334 33.6523L24.7552 32.9075C24.8414 33.0072 24.9293 33.1154 25.0181 33.2324L24.4163 33.9587Z" fill="#CECDCD"/>
<path d="M28.3756 31.7306C29.1268 32.135 29.6374 32.9288 29.6374 33.8419C29.6374 35.1654 28.5645 36.2384 27.2408 36.2384C26.9453 36.2384 26.6623 36.185 26.4009 36.0869C26.5825 36.1846 26.6878 36.2155 26.6878 36.2155C26.9698 36.3323 27.2792 36.3966 27.6034 36.3966C28.9272 36.3966 30 35.3236 30 34.0001C30 32.9467 29.3204 32.052 28.3756 31.7306V31.7306Z" fill="#CECDCD"/>
</g>
<defs>
<clipPath id="clip0">
<rect width="33" height="38" fill="white"/>
</clipPath>
<clipPath id="clip1">
<rect width="10" height="10" fill="white" transform="translate(20 29)"/>
</clipPath>
</defs>
</svg>
