<svg width="43" height="45" viewBox="0 0 43 45" fill="none" xmlns="http://www.w3.org/2000/svg">
<g clip-path="url(#clip0)">
<path d="M6.17404 18.3557H36.8258V35.7508H6.17404V18.3557Z" fill="url(#paint0_linear)"/>
<path d="M6.17404 18.3557H9.6348V35.7508H6.17404V18.3557Z" fill="#50B8FF"/>
<path d="M18.0759 6.18993C18.0759 8.90533 15.8746 11.1066 13.1592 11.1066H10.2325C7.51707 11.1066 5.31577 13.3079 5.31577 16.0233V18.19C5.31577 19.2605 6.18355 20.1282 7.25397 20.1282H35.7458C36.8162 20.1282 37.684 19.2605 37.684 18.19V16.0233C37.684 13.3079 35.4827 11.1066 32.7673 11.1066H29.8406C27.1252 11.1066 24.9239 8.90533 24.9239 6.18993L21.5 3.09497L18.0759 6.18993Z" fill="#CAEDFF"/>
<path d="M8.77662 18.1899V15.158C8.77662 13.4767 9.62104 11.9932 10.9084 11.1065H10.2325C7.51707 11.1065 5.31577 13.3078 5.31577 16.0232V18.1899C5.31577 19.2604 6.18355 20.1282 7.25397 20.1282H10.7147C9.6444 20.1282 8.77662 19.2604 8.77662 18.1899Z" fill="#81DDFD"/>
<path d="M10.2327 43C7.51728 43 5.31598 40.7987 5.31598 38.0833V35.9166C5.31598 34.8462 6.18377 33.9784 7.25418 33.9784H35.746C36.8164 33.9784 37.6842 34.8462 37.6842 35.9166V38.0833C37.6842 40.7987 35.4829 43 32.7675 43H10.2327Z" fill="#CAEDFF"/>
<path d="M8.77675 38.0833V35.9166C8.77675 34.8461 9.64453 33.9784 10.7149 33.9784H7.25418C6.18368 33.9784 5.31598 34.8462 5.31598 35.9166V38.0833C5.31598 40.7987 7.51729 43 10.2327 43H13.6935C10.9781 43 8.77675 40.7987 8.77675 38.0833Z" fill="#81DDFD"/>
<path d="M22.1104 22.7658C21.7769 22.4219 21.2234 22.4219 20.8899 22.7658C16.3245 27.4741 17.6964 31.5988 21.5002 31.5988C25.304 31.5988 26.6758 27.4741 22.1104 22.7658Z" fill="url(#paint1_linear)"/>
<path d="M24.9243 0H18.076C16.8089 0 15.7816 1.02724 15.7816 2.2944V3.89552C15.7816 5.16268 16.8089 6.18992 18.076 6.18992H24.9243C26.1914 6.18992 27.2187 5.16268 27.2187 3.89552V2.2944C27.2186 1.02724 26.1914 0 24.9243 0Z" fill="#81DDFD"/>
<path d="M19.2423 3.89552V2.2944C19.2423 1.02724 20.2695 0 21.5366 0H18.0758C16.8087 0 15.7814 1.02724 15.7814 2.2944V3.89552C15.7814 5.16268 16.8087 6.18992 18.0758 6.18992H21.5366C20.2695 6.18984 19.2423 5.16268 19.2423 3.89552Z" fill="url(#paint2_linear)"/>
</g>
<circle cx="31" cy="36" r="8.75" fill="#F68545" stroke="white" stroke-width="0.5"/>
<path d="M28 33L34 39M33.5714 33L28 39" stroke="white"/>
<defs>
<linearGradient id="paint0_linear" x1="21.4999" y1="18.3557" x2="21.4999" y2="35.7508" gradientUnits="userSpaceOnUse">
<stop stop-color="#7CF4F5"/>
<stop offset="1" stop-color="#409ED2"/>
</linearGradient>
<linearGradient id="paint1_linear" x1="21.5002" y1="22.5078" x2="21.5002" y2="31.5988" gradientUnits="userSpaceOnUse">
<stop stop-color="#7CF4F5"/>
<stop offset="1" stop-color="#409ED2"/>
</linearGradient>
<linearGradient id="paint2_linear" x1="18.659" y1="0" x2="18.659" y2="6.18992" gradientUnits="userSpaceOnUse">
<stop stop-color="#7CF4F5"/>
<stop offset="1" stop-color="#409ED2"/>
</linearGradient>
<clipPath id="clip0">
<rect width="43" height="43" fill="white"/>
</clipPath>
</defs>
</svg>
