<svg width="45" height="43" viewBox="0 0 45 43" fill="none" xmlns="http://www.w3.org/2000/svg">
<path d="M20.4449 23.2151C23.5056 23.2151 23.5056 24.718 26.5664 24.718C29.6268 24.718 29.6277 23.2151 32.6884 23.2151C35.6601 23.2151 35.7467 24.6517 38.5499 24.7352L40.2292 11.9568H25.3662C26.8435 15.7096 24.1061 19.9847 20.0549 20.4487V20.4496L20.4195 23.2183L20.4449 23.2151Z" fill="#CAEDFF"/>
<path d="M20.0567 20.4486C24.0719 19.9846 26.8435 15.685 25.3662 11.916C25.2603 11.6474 25.1356 11.3867 24.9935 11.1362L19.3384 3L13.6827 11.1132C13.1766 11.9998 12.9091 13.0088 12.9082 14.0365C12.9082 17.3756 15.7164 20.4904 19.3384 20.4904C19.5786 20.4904 19.8181 20.4767 20.0567 20.4486Z" fill="#50B8FF"/>
<path d="M23.5213 13.9288C23.5213 13.4782 23.1657 13.1129 22.727 13.1129C22.2882 13.1129 21.9326 13.4782 21.9326 13.9288C21.9311 15.4243 20.751 16.6363 19.2948 16.6382C18.8561 16.6382 18.5005 17.0034 18.5005 17.454C18.5005 17.9043 18.8561 18.2698 19.2948 18.2698C21.6279 18.2669 23.5188 16.3249 23.5213 13.9288Z" fill="#2195F2"/>
<path d="M26.5663 24.7179C23.5056 24.7179 23.5056 23.2151 20.4449 23.2151L20.4203 23.2182L22.3808 38.1643C22.5924 39.7851 23.9372 40.9964 25.5296 40.9999H33.6366C35.2291 40.9958 36.5736 39.7845 36.7855 38.1637L38.5498 24.7192C35.7466 24.6357 35.6601 23.2176 32.6884 23.2176C29.6277 23.2173 29.6277 24.7179 26.5663 24.7179Z" fill="#00ACEA"/>
<path d="M33.9 29.1778C33.6729 29.1778 33.4889 29.0089 33.4889 28.8005V28.7106C33.4889 28.5022 33.6729 28.3333 33.9 28.3333C34.1271 28.3333 34.3111 28.5022 34.3111 28.7106V28.8005C34.3112 29.0089 34.1271 29.1778 33.9 29.1778Z" fill="#CAEDFF"/>
<path d="M32.2556 30.8667C32.0285 30.8667 31.8445 30.6978 31.8445 30.4894V30.3995C31.8445 30.1911 32.0285 30.0222 32.2556 30.0222C32.4826 30.0222 32.6667 30.1911 32.6667 30.3995V30.4894C32.6667 30.6978 32.4826 30.8667 32.2556 30.8667Z" fill="#CAEDFF"/>
<path d="M33.9 35.0889C33.6729 35.0889 33.4889 34.92 33.4889 34.7116V34.6217C33.4889 34.4133 33.6729 34.2444 33.9 34.2444C34.1271 34.2444 34.3111 34.4133 34.3111 34.6217V34.7116C34.3112 34.92 34.1271 35.0889 33.9 35.0889Z" fill="#CAEDFF"/>
<path d="M27.3222 34.2444C27.0952 34.2444 26.9111 34.0755 26.9111 33.8672V33.7772C26.9111 33.5689 27.0952 33.4 27.3222 33.4C27.5493 33.4 27.7334 33.5689 27.7334 33.7772V33.8672C27.7334 34.0755 27.5493 34.2444 27.3222 34.2444Z" fill="#CAEDFF"/>
<path d="M24.8555 30.0222C24.6285 30.0222 24.4444 29.8533 24.4444 29.645V29.555C24.4444 29.3467 24.6285 29.1778 24.8555 29.1778C25.0826 29.1778 25.2667 29.3467 25.2667 29.555V29.645C25.2667 29.8533 25.0826 30.0222 24.8555 30.0222Z" fill="#CAEDFF"/>
<path d="M28.1444 29.1778C27.9174 29.1778 27.7333 29.0089 27.7333 28.8005V28.7106C27.7333 28.5022 27.9174 28.3333 28.1444 28.3333C28.3715 28.3333 28.5556 28.5022 28.5556 28.7106V28.8005C28.5556 29.0089 28.3715 29.1778 28.1444 29.1778Z" fill="#CAEDFF"/>
<path d="M34 14L27.7391 18.8214L32.6087 17.8571L26 23" stroke="#00ACEA" stroke-width="0.5"/>
<path d="M25.3887 5.02051H27.1514V6.29492H25.3887V8.28711H24.0459V6.29492H22.2783V5.02051H24.0459V3.11133H25.3887V5.02051ZM33.6748 6.63184C33.6195 7.39681 33.3363 7.99902 32.8252 8.43848C32.3174 8.87793 31.6468 9.09766 30.8135 9.09766C29.902 9.09766 29.1842 8.79167 28.6602 8.17969C28.1393 7.56445 27.8789 6.72135 27.8789 5.65039V5.21582C27.8789 4.53223 27.9993 3.93001 28.2402 3.40918C28.4811 2.88835 28.8245 2.48958 29.2705 2.21289C29.7197 1.93294 30.2406 1.79297 30.833 1.79297C31.6533 1.79297 32.3141 2.0127 32.8154 2.45215C33.3167 2.8916 33.6064 3.50846 33.6846 4.30273H32.2197C32.1839 3.84375 32.0553 3.51172 31.834 3.30664C31.6159 3.09831 31.2822 2.99414 30.833 2.99414C30.3447 2.99414 29.9785 3.16992 29.7344 3.52148C29.4935 3.86979 29.3698 4.41178 29.3633 5.14746V5.68457C29.3633 6.4528 29.4788 7.01432 29.71 7.36914C29.9443 7.72396 30.3122 7.90137 30.8135 7.90137C31.266 7.90137 31.6029 7.79883 31.8242 7.59375C32.0488 7.38542 32.1774 7.06478 32.21 6.63184H33.6748ZM37.6055 9C37.5404 8.87305 37.4932 8.71517 37.4639 8.52637C37.1221 8.90723 36.6777 9.09766 36.1309 9.09766C35.6133 9.09766 35.1836 8.94792 34.8418 8.64844C34.5033 8.34896 34.334 7.97135 34.334 7.51562C34.334 6.95573 34.5407 6.52604 34.9541 6.22656C35.3708 5.92708 35.9714 5.77572 36.7559 5.77246H37.4053V5.46973C37.4053 5.22559 37.3418 5.03027 37.2148 4.88379C37.0911 4.7373 36.8942 4.66406 36.624 4.66406C36.3864 4.66406 36.1992 4.72103 36.0625 4.83496C35.929 4.94889 35.8623 5.10514 35.8623 5.30371H34.4512C34.4512 4.99772 34.5456 4.71452 34.7344 4.4541C34.9232 4.19368 35.1901 3.99023 35.5352 3.84375C35.8802 3.69401 36.2676 3.61914 36.6973 3.61914C37.3483 3.61914 37.8643 3.78353 38.2451 4.1123C38.6292 4.43783 38.8213 4.89681 38.8213 5.48926V7.7793C38.8245 8.2806 38.8945 8.65983 39.0312 8.91699V9H37.6055ZM36.4385 8.01855C36.6468 8.01855 36.8389 7.97298 37.0146 7.88184C37.1904 7.78743 37.3206 7.66211 37.4053 7.50586V6.59766H36.8779C36.1715 6.59766 35.7956 6.8418 35.75 7.33008L35.7451 7.41309C35.7451 7.58887 35.807 7.73372 35.9307 7.84766C36.0544 7.96159 36.2236 8.01855 36.4385 8.01855Z" fill="#F68545"/>
</svg>
