<svg width="525" height="219" viewBox="0 0 525 219" fill="none" xmlns="http://www.w3.org/2000/svg">
<path d="M322 112C362.88 112 345.36 159.61 395 168.537C415 171.111 482.5 175.073 523 171.537L524 174.537C486 177.537 416.5 174.753 395 171.537C341.953 163.602 358.5 115 322 115H319V116.5H315V117.5H299V121V122.5H298V124.5H297L313 186L297 202.5C295.5 205 290.5 205.5 288.5 202.5V186H272V202.5C271 205.5 265.5 205.5 264 202.5L263.938 186L263.5 69H261.5V66.5H263V59C263 56 262.5 56 259.5 56H251.5V57.5H249V55H203L197.5 47H249V44.5H251.5V46H266.5C272.5 46 272.5 49 272.5 52V66.5H274V69H272V186H288.5V124.5H287.5V122.5H285.5V121H287V104.5V103H285.5V96.5H287V95.5H288V94.5H289V45.5H287V43H288V35.5C288 33 287.5 31.5 285 31.5H277V33H274V30.5H183.5L175 23H274V21H277V22C277 22 288.5 21.5 292 22C295.5 22.5 297.5 25 297.5 29V43H298.5V45.5H297V94.5H298V95.5H299V96.5H300V103H299V104.5V108.5H306H307.167L310.5 104.5C312 104 312.5 105.5 312.5 106L310.417 108.5H311H315V110H319V112H322Z" fill="white"/>
<path d="M322 112C362.88 112 345.36 159.61 395 168.537C415 171.111 482.5 175.073 523 171.537L524 174.537C486 177.537 416.5 174.753 395 171.537C341.953 163.602 358.5 115 322 115M322 112H319M322 112V115M322 115H319M319 112V115M319 112V110H315M319 115V116.5H315M315 110V116.5M315 110V108.5H311H306H299M315 116.5V117.5H299M305.5 110.5L310.5 104.5C312 104 312.5 105.5 312.5 106L307.5 112M299 108.5H297.5V117.5H299M299 108.5V104.5M299 104.5H293M299 104.5V103M287 104.5V121M287 104.5H293M287 104.5V103M287 121H293M287 121H285.5V122.5H287.5V124.5H288.5M299 121V117.5M299 121H293M299 121V122.5H298V124.5H297M293 121V104.5M288.5 124.5V202.5C290.5 205.5 295.5 205 297 202.5L313 186M288.5 124.5H297M297 124.5L313 186M287 103H285.5V96.5H287M287 103H290M299 103H300V96.5H299M299 103H295M290 103V96.5M290 103H295M290 96.5H295M290 96.5H287M295 96.5V103M295 96.5H299M287 96.5V95.5H288V94.5H289M299 96.5V95.5H298V94.5H297M297 94.5V45.5M297 94.5H289M297 45.5H289M297 45.5H298.5V43H297.5M289 45.5V94.5M289 45.5H287V43H288M297.5 43V29C297.5 25 295.5 22.5 292 22C288.5 21.5 277 22 277 22M297.5 43H288M277 22V21H274V23M277 22V31.5M277 31.5V33H274V30.5M277 31.5H285C287.5 31.5 288 33 288 35.5V43M274 30.5H183.5L175 23H274M274 30.5V23M249 47H197.5L203 55H249M249 47V44.5H251.5V46M249 47V55M249 55V57.5H251.5V56M251.5 56H259.5C262.5 56 263 56 263 59V66.5M251.5 56V46M263 66.5H261.5V69H263.5M263 66.5H272.5M272.5 66.5H274V69H272M272.5 66.5C272.5 66.5 272.5 57 272.5 52C272.5 49 272.5 46 266.5 46H251.5M263.5 69H272M263.5 69L263.938 186M272 69V186M187 186H263.938M263.938 186L264 202.5C265.5 205.5 271 205.5 272 202.5V186M272 186H288.5M313 186H518M302.5 111.5C304.5 108.5 309.5 111.5 307 115C305.5 117.5 300 115 302.5 111.5Z" stroke="black" stroke-width="0.5"/>
<path d="M307 108.5H310.5" stroke="white" stroke-width="0.5"/>
<path d="M216.75 109.5C216.75 169.839 168.283 218.75 108.5 218.75C48.7173 218.75 0.25 169.839 0.25 109.5C0.25 49.1607 48.7173 0.25 108.5 0.25C168.283 0.25 216.75 49.1607 216.75 109.5Z" stroke="black" stroke-width="0.5"/>
<path d="M156.5 119V93.5L144.5 93L136 103L132.5 98L136 93.5H112.5C107 100.5 106 111.5 112.5 119H156.5Z" fill="#7ABFE9"/>
<path d="M175.5 101.517C190 102.017 200 101.5 216.5 111.5V120.5C200.5 109 175.5 110.017 175.5 110.017V101.517Z" fill="#8DCEF6" stroke="black" stroke-width="0.5"/>
<path d="M171.5 97.5H174V99H175.5V102V112.5H174V114H171.5M171.5 97.5V96.5H159.5V97.5M171.5 97.5V102M171.5 114V115H159.5V113.5M171.5 114V110M171.5 110H159.5M171.5 110V102M159.5 110V102M159.5 110V113.5M159.5 102H171.5M159.5 102V97.5M159.5 97.5H156.5M156.5 97.5V113.5M156.5 97.5V93.5H144.5M156.5 113.5H159.5M156.5 113.5V119H112.5M112.5 119C106 112.5 106.5 100 112.5 93.5M112.5 119V131M112.5 93.5H136.5M112.5 93.5V81.5M133 97.5L147.5 81.5C150.5 80 152.5 82.5 151.5 85L137.5 101.5M112.5 81.5H93.25M112.5 81.5L115 76.5M74 81.5V131M74 81.5H93.25M74 81.5L71 76.5M74 131H93.25M74 131L78 136M112.5 131H93.25M112.5 131L108 136M93.25 131V81.5M115 76.5V54M115 76.5H102M71 76.5V54M71 76.5H83.5M71 54H83.5M71 54L77 48.5M115 54H102M115 54L109.5 48.5M102 76.5V54M102 76.5H83.5M102 54H83.5M83.5 54V76.5M77 48.5H109.5M77 48.5V5M109.5 48.5V0M78 136H108M78 136V213.5M108 136V218M53.5 16.5V203" stroke="black" stroke-width="0.5"/>
<circle cx="129.5" cy="105.5" r="9.25" fill="white" stroke="black" stroke-width="0.5"/>
<circle cx="129.5" cy="105.5" r="5.25" fill="white" stroke="black" stroke-width="0.5"/>
</svg>
