<svg width="16" height="16" viewBox="0 0 16 16" fill="none" xmlns="http://www.w3.org/2000/svg">
<g clip-path="url(#clip0)">
<path d="M11.0331 3.33335C11.6843 3.4604 12.2827 3.77886 12.7518 4.24798C13.221 4.7171 13.5394 5.31553 13.6665 5.96669L11.0331 3.33335ZM11.0331 0.666687C12.386 0.816978 13.6475 1.4228 14.6106 2.38469C15.5737 3.34658 16.1811 4.60736 16.3331 5.96002L11.0331 0.666687ZM15.6665 11.28V13.28C15.6672 13.4657 15.6292 13.6495 15.5548 13.8196C15.4804 13.9897 15.3713 14.1424 15.2345 14.2679C15.0977 14.3934 14.9362 14.489 14.7603 14.5485C14.5844 14.608 14.398 14.6301 14.2131 14.6134C12.1617 14.3904 10.1911 13.6894 8.45979 12.5667C6.84901 11.5431 5.48335 10.1775 4.45979 8.56669C3.33311 6.82749 2.63195 4.84735 2.41313 2.78669C2.39647 2.60233 2.41838 2.41653 2.47746 2.2411C2.53654 2.06568 2.63151 1.90448 2.7563 1.76777C2.8811 1.63106 3.033 1.52183 3.20232 1.44703C3.37164 1.37224 3.55469 1.33353 3.73979 1.33335H5.73979C6.06333 1.33017 6.37699 1.44474 6.6223 1.65571C6.86761 1.86668 7.02784 2.15965 7.07313 2.48002C7.15754 3.12006 7.31409 3.7485 7.53979 4.35335C7.62949 4.59197 7.6489 4.8513 7.59573 5.10061C7.54256 5.34992 7.41903 5.57876 7.23979 5.76002L6.39313 6.60669C7.34216 8.27572 8.7241 9.65765 10.3931 10.6067L11.2398 9.76002C11.4211 9.58078 11.6499 9.45725 11.8992 9.40408C12.1485 9.35091 12.4078 9.37032 12.6465 9.46002C13.2513 9.68572 13.8797 9.84227 14.5198 9.92669C14.8436 9.97237 15.1394 10.1355 15.3508 10.385C15.5622 10.6345 15.6746 10.9531 15.6665 11.28Z" stroke="#787878" stroke-linecap="round" stroke-linejoin="round"/>
</g>
<defs>
<clipPath id="clip0">
<rect width="16" height="16" fill="white"/>
</clipPath>
</defs>
</svg>
